<svg version="1.1" id="レイヤー_1" xmlns="http://www.w3.org/2000/svg" x="0" y="0" width="85.04" height="85.04" xml:space="preserve"><style>.st1,.st2{fill:none;stroke:#fff;stroke-width:1.0667;stroke-miterlimit:10}.st2{stroke-width:1.6}</style><path d="M70.867 67.1a3.779 3.779 0 01-3.767 3.767H17.94a3.778 3.778 0 01-3.767-3.767V17.94a3.778 3.778 0 013.767-3.767H67.1a3.779 3.779 0 013.767 3.767V67.1z" fill="#96ad61"/><circle cx="42.519" cy="20.671" r="3.78" fill="none" stroke="#fff" stroke-width="1.333" stroke-miterlimit="10"/><circle class="st1" cx="59.853" cy="63.505" r="3.023"/><circle class="st1" cx="47.585" cy="43.705" r="3.023"/><circle class="st1" cx="37.453" cy="43.705" r="3.023"/><circle class="st1" cx="42.519" cy="50.505" r="3.023"/><circle class="st1" cx="25.186" cy="63.505" r="3.023"/><path class="st2" d="M45.794 23.243l13.514 37.13M44.203 23.688l2.99 16.961M42.556 23.853v23.664M40.907 23.726l-2.985 16.931M39.305 23.315L25.798 60.427"/></svg>